<svg xmlns="http://www.w3.org/2000/svg" xmlns:xlink="http://www.w3.org/1999/xlink" viewBox="0 0 280 250" preserveAspectRatio="xMidYMid" style="display: block; shape-rendering: auto; background: rgb(255, 255, 255);" width="280" height="250"><style type="text/css">
  .ld-text text {
    text-anchor: middle;
    dominant-baseline: middle;
    font-size: 25px;
    opacity: 0;
    user-select: none;
    pointer-events: none;
  }
</style>
<g style="transform-origin:140px 125px;transform:scale(1)" class="ld-text">
<g transform="translate(140,125)">
  <g transform="scale(0.3125) translate(0,0)"><g class="path" style="opacity: 1; transform-origin: -110.27px 11.37px 0px; transform: matrix3d(1, 0, 0, 0, 0, 1, 0, 0, 0, 0, 1, 0, 0, 0, 0, 1); animation: 16.6667s linear -9.9s infinite forwards animate-9vyfmpjgurf; transform-box: view-box;"><path d="M23.83-11.62L32.46-11.62L8.71 44.87L0 44.79L23.83-11.62" style="fill: rgb(255, 204, 0);" transform="translate(-126.505,-22.201)"></path></g><g class="path" style="opacity: 1; transform-origin: -77.69px 11.37px 0px; transform: matrix3d(1, 0, 0, 0, 0, 1, 0, 0, 0, 0, 1, 0, 0, 0, 0, 1); animation: 16.6667s linear -8.8s infinite forwards animate-9vyfmpjgurf; transform-box: view-box;"><path d="M56.41-11.62L65.04-11.62L41.29 44.87L32.58 44.79L56.41-11.62" style="fill: rgb(51, 51, 51);" transform="translate(-126.505,-22.201)"></path></g><g class="path" style="opacity: 1; transform-origin: -42.19px 18.8px 0px; transform: matrix3d(1, 0, 0, 0, 0, 1, 0, 0, 0, 0, 1, 0, 0, 0, 0, 1); animation: 16.6667s linear -7.7s infinite forwards animate-9vyfmpjgurf; transform-box: view-box;"><path d="M98.67 50.96L98.67 50.96L98.67 54.24Q94.41 54.24 90.57 53.52Q86.72 52.80 84.77 50.73L84.77 50.73Q82.50 48.31 81.99 45.22Q81.48 42.13 81.48 38.81L81.48 38.81L81.48 34.67Q81.48 29.83 80.61 27.31Q79.73 24.79 77.25 23.87Q74.77 22.95 69.96 22.95L69.96 22.95L69.96 19.36Q74.77 19.36 77.25 18.44Q79.73 17.52 80.61 15.01Q81.48 12.49 81.48 7.64L81.48 7.64L81.48 3.50Q81.48 0.14 81.99-2.92Q82.50-5.99 84.77-8.41L84.77-8.41Q86.72-10.48 90.57-11.21Q94.41-11.93 98.67-11.93L98.67-11.93L98.67-8.65Q98.01-8.65 96.43-8.49Q94.84-8.33 93.18-7.83Q91.52-7.32 90.51-6.23L90.51-6.23Q89.18-4.82 88.89-2.44Q88.59-0.05 88.59 2.60L88.59 2.60L88.59 5.61Q88.59 10.06 87.85 13.15Q87.11 16.24 84.80 18.17Q82.50 20.10 77.81 21.12L77.81 21.12Q82.50 22.10 84.80 24.09Q87.11 26.08 87.85 29.19Q88.59 32.29 88.59 36.70L88.59 36.70L88.59 39.71Q88.59 42.37 88.89 44.75Q89.18 47.13 90.51 48.54L90.51 48.54Q91.52 49.63 93.18 50.14Q94.84 50.65 96.43 50.81Q98.01 50.96 98.67 50.96" style="fill: rgb(255, 204, 0);" transform="translate(-126.505,-22.201)"></path></g><g class="path" style="opacity: 1; transform-origin: -12.09px -8.74px 0px; transform: matrix3d(1, 0, 0, 0, 0, 1, 0, 0, 0, 0, 1, 0, 0, 0, 0, 1); animation: 16.6667s linear -6.6s infinite forwards animate-9vyfmpjgurf; transform-box: view-box;"><path d="M119.77 10.26L119.77 10.26Q119.77 12.45 118.20 14.03Q116.64 15.61 114.41 15.61L114.41 15.61Q112.19 15.61 110.63 14.03Q109.06 12.45 109.06 10.26L109.06 10.26Q109.06 8.03 110.66 6.45Q112.27 4.87 114.49 4.87L114.49 4.87Q116.72 4.87 118.24 6.45Q119.77 8.03 119.77 10.26" style="fill: rgb(51, 51, 51);" transform="translate(-126.505,-22.201)"></path></g><g class="path" style="opacity: 1; transform-origin: -12.79px 31.12px 0px; transform: matrix3d(1, 0, 0, 0, 0, 1, 0, 0, 0, 0, 1, 0, 0, 0, 0, 1); animation: 16.6667s linear -5.5s infinite forwards animate-9vyfmpjgurf; transform-box: view-box;"><path d="M120.66 43.62L120.66 43.62Q120.66 47.60 118.71 50.73Q116.76 53.85 113.57 55.77Q110.39 57.68 106.76 57.99L106.76 57.99L106.76 55.10Q110.94 54.17 113.24 51.80Q115.55 49.44 115.55 44.13L115.55 44.13L115.55 43.85L110.51 43.85Q110.35 43.66 109.71 42.72Q109.06 41.78 109.06 40.14L109.06 40.14Q109.06 38.07 110.47 36.35Q111.88 34.63 114.02 34.63L114.02 34.63Q117.46 34.63 119.06 37.19Q120.66 39.75 120.66 43.62" style="fill: rgb(255, 204, 0);" transform="translate(-126.505,-22.201)"></path></g><g class="path" style="opacity: 1; transform-origin: 10.29px -8.74px 0px; transform: matrix3d(1, 0, 0, 0, 0, 1, 0, 0, 0, 0, 1, 0, 0, 0, 0, 1); animation: 16.6667s linear -4.4s infinite forwards animate-9vyfmpjgurf; transform-box: view-box;"><path d="M142.15 10.26L142.15 10.26Q142.15 12.45 140.59 14.03Q139.02 15.61 136.80 15.61L136.80 15.61Q134.57 15.61 133.01 14.03Q131.45 12.45 131.45 10.26L131.45 10.26Q131.45 8.03 133.05 6.45Q134.65 4.87 136.88 4.87L136.88 4.87Q139.10 4.87 140.63 6.45Q142.15 8.03 142.15 10.26" style="fill: rgb(51, 51, 51);" transform="translate(-126.505,-22.201)"></path></g><g class="path" style="opacity: 1; transform-origin: 9.59px 31.12px 0px; transform: matrix3d(1, 0, 0, 0, 0, 1, 0, 0, 0, 0, 1, 0, 0, 0, 0, 1); animation: 16.6667s linear -3.3s infinite forwards animate-9vyfmpjgurf; transform-box: view-box;"><path d="M143.05 43.62L143.05 43.62Q143.05 47.60 141.09 50.73Q139.14 53.85 135.96 55.77Q132.77 57.68 129.14 57.99L129.14 57.99L129.14 55.10Q133.32 54.17 135.63 51.80Q137.93 49.44 137.93 44.13L137.93 44.13L137.93 43.85L132.89 43.85Q132.73 43.66 132.09 42.72Q131.45 41.78 131.45 40.14L131.45 40.14Q131.45 38.07 132.85 36.35Q134.26 34.63 136.41 34.63L136.41 34.63Q139.84 34.63 141.45 37.19Q143.05 39.75 143.05 43.62" style="fill: rgb(255, 204, 0);" transform="translate(-126.505,-22.201)"></path></g><g class="path" style="opacity: 1; transform-origin: 42.32px 18.8px 0px; transform: matrix3d(1, 0, 0, 0, 0, 1, 0, 0, 0, 0, 1, 0, 0, 0, 0, 1); animation: 16.6667s linear -2.2s infinite forwards animate-9vyfmpjgurf; transform-box: view-box;"><path d="M183.20 19.36L183.20 19.36L183.20 22.95Q178.48 22.95 176 23.81Q173.52 24.67 172.60 27.15Q171.68 29.63 171.68 34.44L171.68 34.44L171.68 38.81Q171.68 42.13 171.19 45.22Q170.70 48.31 168.40 50.73L168.40 50.73Q166.41 52.80 162.58 53.52Q158.75 54.24 154.45 54.24L154.45 54.24L154.45 50.96Q155.16 50.96 156.72 50.81Q158.28 50.65 159.96 50.14Q161.64 49.63 162.62 48.54L162.62 48.54Q163.91 47.17 164.24 44.87Q164.57 42.56 164.57 39.95L164.57 39.95Q164.57 39.13 164.55 38.31Q164.53 37.49 164.53 36.70L164.53 36.70Q164.53 32.25 165.29 29.15Q166.05 26.04 168.38 24.07Q170.70 22.10 175.35 21.12L175.35 21.12Q170.66 20.10 168.36 18.19Q166.05 16.27 165.29 13.17Q164.53 10.06 164.53 5.61L164.53 5.61Q164.53 4.83 164.55 4.01Q164.57 3.19 164.57 2.37L164.57 2.37Q164.57-0.25 164.24-2.55Q163.91-4.86 162.62-6.23L162.62-6.23Q161.64-7.32 159.96-7.83Q158.28-8.33 156.72-8.49Q155.16-8.65 154.45-8.65L154.45-8.65L154.45-11.93Q158.75-11.93 162.58-11.21Q166.41-10.48 168.40-8.41L168.40-8.41Q170.70-5.99 171.19-2.92Q171.68 0.14 171.68 3.50L171.68 3.50L171.68 7.88Q171.68 12.68 172.60 15.14Q173.52 17.60 176 18.48Q178.48 19.36 183.20 19.36" style="fill: rgb(51, 51, 51);" transform="translate(-126.505,-22.201)"></path></g><g class="path" style="opacity: 1; transform-origin: 77.76px 11.39px 0px; transform: matrix3d(1, 0, 0, 0, 0, 1, 0, 0, 0, 0, 1, 0, 0, 0, 0, 1); animation: 16.6667s linear -1.1s infinite forwards animate-9vyfmpjgurf; transform-box: view-box;"><path d="M187.97-11.54L196.60-11.54L220.55 44.87L211.72 44.87L187.97-11.54" style="fill: rgb(255, 204, 0);" transform="translate(-126.505,-22.201)"></path></g><g class="path" style="opacity: 1; transform-origin: 110.21px 11.39px 0px; transform: matrix3d(1, 0, 0, 0, 0, 1, 0, 0, 0, 0, 1, 0, 0, 0, 0, 1); animation: 16.6667s linear infinite forwards animate-9vyfmpjgurf; transform-box: view-box;"><path d="M220.43-11.54L229.06-11.54L253.01 44.87L244.18 44.87L220.43-11.54" style="fill: rgb(51, 51, 51);" transform="translate(-126.505,-22.201)"></path></g></g><text dy="0.35em" fill="#ffcc00" font-family="Abyssinica SIL" font-size="25">//{;;}\\</text>
</g>
</g><style type="text/css">@keyframes animate-9vyfmpjgurf { 0.00% {transform: translate(0.00px,0.00px) rotate(0.00deg) scale(1.00, 1.00) skew(0deg, 0.00deg) ;opacity: 1.00;}2.00% {animation-timing-function: cubic-bezier(0.20,0.39,0.50,0.97);transform: translate(0.00px,-1.08px) rotate(0.00deg) ;}36.00% {animation-timing-function: cubic-bezier(0.50,0.03,0.80,0.61);transform: translate(0.00px,-10.00px) rotate(0.00deg) ;}72.00% {transform: translate(0.00px,0.00px) rotate(0.00deg) ;}74.00% {animation-timing-function: cubic-bezier(0.23,0.43,0.48,0.91);transform: translate(0.00px,0.00px) rotate(0.00deg) scale(1.00, 0.95) ;}86.00% {animation-timing-function: cubic-bezier(0.52,0.09,0.77,0.57);transform: translate(0.00px,0.00px) rotate(0.00deg) scale(1.00, 0.80) ;}100.00% {animation-timing-function: cubic-bezier(0.52,0.09,0.77,0.57);transform: translate(0.00px,0.00px) rotate(0.00deg) scale(1.00, 1.00) ;} }</style><!-- [ldio] generated by https://loading.io --></svg>